<svg width="280" height="42" viewBox="0 0 280 42" fill="none" xmlns="http://www.w3.org/2000/svg">
<g clip-path="url(#clip0_4055_1061)">
<g clip-path="url(#clip1_4055_1061)">
<path d="M217.723 233.516L260.441 313.998L173.642 347.136L145.654 258.933L77.3134 321.325L15.987 248.496L91.4068 199.67L14.9027 161.669L63.1954 83.2112L134.901 135.483L151.992 53.5283L242.866 77.878L210.993 156.845L304.016 147.739L306.61 239.832L217.722 233.514L217.723 233.516Z" fill="#A399FD"/>
</g>
<path d="M164.659 42L164.161 31.2145L168.08 30.5238L161.327 31.0564L161 20.2459L279.471 11L280 21.7772L260.575 25.1893L271.842 24.4819L272.107 35.2923L164.659 42Z" fill="#A399FD"/>
</g>
<g clip-path="url(#clip2_4055_1061)">
<path d="M4.23549 2.88898V29.3704H0V2.88898H4.23549ZM21.4145 2.88898L9.77744 15.6464L9.30332 15.6891L2.53392 23.0745L2.13882 18.3805L16.2308 2.88898H21.4145ZM10.6467 12.3569L21.6516 29.3704H16.6627L7.28567 14.7653L10.6519 12.3569H10.6467Z" fill="black"/>
<path d="M50.6888 26.0009V29.3704H33.6678V26.4014L43.2451 15.0857L45.6631 12.5973L42.2178 12.6827H33.4097C32.5879 12.6827 31.7871 12.939 30.9917 13.3822C30.2015 13.8255 29.5482 14.4876 29.032 15.3688C28.521 16.2499 28.2628 17.3766 28.2628 18.7383V29.3704H24.0273V9.30777H27.6307L28.0258 12.923C28.5262 11.6788 29.2585 10.7176 30.2225 10.0447C30.2752 10.002 30.3279 9.96994 30.3806 9.93256C30.9126 9.58545 32.4088 9.39321 33.7785 9.30777H50.3306V12.2769L40.7533 23.5925L38.3774 26.081L42.1388 26.0009H50.6888Z" fill="black"/>
<path d="M72.1351 9.30777L63.4639 31.7361C62.8844 33.2847 62.2576 34.5183 61.5832 35.4261C60.9089 36.3339 60.1398 36.9907 59.2653 37.3912C58.3961 37.7917 57.3794 37.9947 56.2151 37.9947C55.2669 37.9947 54.3871 37.8665 53.5811 37.6155C52.7751 37.3592 52.0692 37.0174 51.4634 36.5902L52.4906 33.258C52.9911 33.6852 53.5284 34.0056 54.0921 34.2192C54.6611 34.4328 55.2722 34.5396 55.9307 34.5396C56.6418 34.5396 57.2845 34.3474 57.8482 33.9576C58.4172 33.5677 58.9229 32.7988 59.3707 31.6507L60.2399 29.4826L58.1432 24.5056L51.9691 9.29709H56.7209L61.1144 21.8943L62.2628 25.6644L63.5693 21.5312L67.7258 9.29175H72.1193L72.1351 9.30777Z" fill="black"/>
<path d="M81.4384 29.7709C79.4577 29.7709 77.6507 29.3811 76.0176 28.6068C74.3793 27.8325 73.0886 26.7324 72.1404 25.3173L75.0694 22.7487C75.6489 23.8435 76.4865 24.7192 77.5822 25.3761C78.678 26.0329 79.9897 26.3586 81.5227 26.3586C82.7344 26.3586 83.6984 26.145 84.4149 25.7178C85.1261 25.2906 85.4843 24.6872 85.4843 23.9129C85.4843 23.4056 85.321 22.957 84.9891 22.5672C84.6572 22.1773 84.0303 21.8783 83.1084 21.6647L78.9519 20.7836C76.8395 20.3564 75.3381 19.6675 74.4372 18.717C73.5417 17.7664 73.0939 16.5596 73.0939 15.0857C73.0939 13.991 73.41 12.9711 74.0421 12.0365C74.6743 11.102 75.6067 10.3437 76.8342 9.76701C78.0616 9.19028 79.5314 8.90192 81.2488 8.90192C83.2296 8.90192 84.9153 9.2597 86.3166 9.96459C87.7127 10.6748 88.7821 11.6841 89.5248 12.9924L86.5958 15.4809C86.0954 14.4129 85.3578 13.6172 84.378 13.0939C83.4034 12.5706 82.3867 12.3142 81.3278 12.3142C80.4849 12.3142 79.7579 12.421 79.1521 12.6346C78.5463 12.8482 78.0827 13.1419 77.7666 13.5157C77.4505 13.8895 77.2925 14.3328 77.2925 14.8401C77.2925 15.3741 77.4927 15.844 77.8878 16.2445C78.2829 16.645 78.9941 16.9548 80.0266 17.1684L84.5413 18.1296C86.4431 18.5034 87.7811 19.1388 88.5608 20.036C89.3405 20.9331 89.7303 22.0225 89.7303 23.3041C89.7303 24.5857 89.3984 25.7178 88.7399 26.6951C88.0814 27.6723 87.1279 28.4252 85.8899 28.9646C84.6519 29.4986 83.1716 29.7656 81.4542 29.7656L81.4384 29.7709Z" fill="black"/>
<path d="M91.632 29.3704V26.4014L101.209 15.0857L103.622 12.5973L100.177 12.6774H91.7057V9.30777H108.289V12.2769L98.7122 23.5925L96.3363 26.081L100.098 26.0009H108.648V29.3704H91.6267H91.632Z" fill="black"/>
<path d="M121.739 9.30777V12.6774H110.697V9.30777H121.739ZM114.932 3.41232V23.3522C114.932 24.3401 115.191 25.0663 115.702 25.5202C116.218 25.9742 116.908 26.2038 117.777 26.2038C118.488 26.2038 119.11 26.0916 119.637 25.862C120.164 25.6377 120.654 25.3227 121.101 24.9168L122.05 28.0461C121.444 28.5801 120.696 29.002 119.811 29.3117C118.926 29.6214 117.946 29.771 116.861 29.771C115.728 29.771 114.685 29.584 113.731 29.2102C112.778 28.8364 112.04 28.2277 111.513 27.3839C110.987 26.5402 110.707 25.4401 110.681 24.0731V4.61384L114.917 3.41232H114.932Z" fill="black"/>
<path d="M132.865 8.90726C134.793 8.90726 136.494 9.32378 137.969 10.1515C139.444 10.9792 140.603 12.1754 141.43 13.74C142.263 15.3047 142.679 17.1684 142.679 19.3364C142.679 21.5045 142.263 23.3682 141.43 24.9328C140.598 26.4975 139.444 27.6937 137.969 28.5214C136.489 29.3491 134.787 29.7656 132.865 29.7656C130.942 29.7656 129.235 29.3491 127.76 28.5214C126.28 27.6937 125.121 26.4975 124.278 24.9328C123.435 23.3682 123.013 21.5045 123.013 19.3364C123.013 17.1684 123.435 15.3047 124.278 13.74C125.121 12.1754 126.285 10.9792 127.76 10.1515C129.235 9.32378 130.942 8.90726 132.865 8.90726ZM132.865 12.2768C131.679 12.2768 130.668 12.5492 129.836 13.0992C129.003 13.6492 128.366 14.4449 127.918 15.4862C127.47 16.5275 127.244 17.8145 127.244 19.3364C127.244 20.8584 127.47 22.1133 127.918 23.1653C128.366 24.2226 129.008 25.0236 129.836 25.5736C130.668 26.1237 131.674 26.396 132.865 26.396C134.055 26.396 135.056 26.1237 135.873 25.5736C136.689 25.0236 137.321 24.2226 137.774 23.1653C138.222 22.1079 138.449 20.8317 138.449 19.3364C138.449 17.8412 138.222 16.5275 137.774 15.4862C137.327 14.4449 136.694 13.6492 135.873 13.0992C135.056 12.5492 134.05 12.2768 132.865 12.2768Z" fill="black"/>
<path d="M155.781 9.30776V12.6773H145.25V9.30776H155.781ZM152.14 0C152.957 0 153.705 0.0854413 154.379 0.261664C155.054 0.437886 155.559 0.66751 155.902 0.961214L155.111 4.05312C154.822 3.86622 154.49 3.72737 154.121 3.63125C153.752 3.54047 153.331 3.49241 152.857 3.49241C151.777 3.49241 150.923 3.74873 150.302 4.25604C149.68 4.76335 149.369 5.5964 149.369 6.74452V9.67622L149.491 10.7603V29.3758H145.255V6.41877C145.255 5.40416 145.408 4.49101 145.708 3.68999C146.014 2.88898 146.467 2.21079 147.072 1.6661C147.678 1.11608 148.411 0.70489 149.269 0.421866C150.128 0.138842 151.081 0 152.14 0Z" fill="black"/>
<path d="M198.678 2.88898V29.3704H194.759V14.0444L195.075 6.73917H195.033L187.078 29.3704H183.554L175.599 6.73917H175.557L175.873 14.0444V29.3704H171.953V2.88898H178.249L183.511 18.215L185.334 24.5163H185.413L187.273 18.215L192.499 2.88898H198.673H198.678Z" fill="black"/>
<path d="M207.586 10.9579V29.3704H203.351V12.1861L207.586 10.9525V10.9579Z" fill="black"/>
<path d="M220.909 8.90726C222.837 8.90726 224.539 9.32378 226.014 10.1515C227.489 10.9792 228.648 12.1754 229.475 13.74C230.307 15.3047 230.723 17.1684 230.723 19.3364C230.723 21.5045 230.307 23.3682 229.475 24.9328C228.643 26.4975 227.489 27.6937 226.014 28.5214C224.533 29.3491 222.832 29.7656 220.909 29.7656C218.986 29.7656 217.279 29.3491 215.804 28.5214C214.324 27.6937 213.165 26.4975 212.322 24.9328C211.479 23.3682 211.058 21.5045 211.058 19.3364C211.058 17.1684 211.479 15.3047 212.322 13.74C213.165 12.1754 214.329 10.9792 215.804 10.1515C217.279 9.32378 218.986 8.90726 220.909 8.90726ZM220.909 12.2768C219.724 12.2768 218.712 12.5492 217.88 13.0992C217.048 13.6492 216.41 14.4449 215.962 15.4862C215.515 16.5275 215.288 17.8145 215.288 19.3364C215.288 20.8584 215.515 22.1133 215.962 23.1653C216.41 24.2226 217.053 25.0236 217.88 25.5736C218.712 26.1237 219.718 26.396 220.909 26.396C222.1 26.396 223.101 26.1237 223.917 25.5736C224.734 25.0236 225.366 24.2226 225.819 23.1653C226.267 22.1079 226.493 20.8317 226.493 19.3364C226.493 17.8412 226.267 16.5275 225.819 15.4862C225.371 14.4449 224.739 13.6492 223.917 13.0992C223.101 12.5492 222.094 12.2768 220.909 12.2768Z" fill="black"/>
<path d="M244.594 9.30777V12.6774H233.552V9.30777H244.594ZM237.788 3.41232V23.3522C237.788 24.3401 238.046 25.0663 238.557 25.5202C239.073 25.9742 239.763 26.2038 240.633 26.2038C241.344 26.2038 241.965 26.0916 242.492 25.862C243.019 25.6377 243.509 25.3227 243.957 24.9168L244.905 28.0461C244.299 28.5801 243.551 29.002 242.666 29.3117C241.781 29.6214 240.801 29.771 239.716 29.771C238.583 29.771 237.54 29.584 236.587 29.2102C235.633 28.8364 234.896 28.2277 234.369 27.3839C233.842 26.5402 233.563 25.4401 233.537 24.0731V4.61384L237.772 3.41232H237.788Z" fill="black"/>
<path d="M207.586 4.70996H203.351V9.30777L207.586 8.10625V4.70996Z" fill="black"/>
<path d="M253.076 0.28302V29.3704H248.84V0.28302H253.076ZM267.526 9.30775L258.697 18.4553L257.785 19.0961L251.569 25.6377L251.527 20.7409L262.49 9.30775H267.515H267.526ZM259.213 16.0523L268 29.3758H263.09L256.047 18.5034L259.213 16.0576V16.0523Z" fill="black"/>
</g>
<defs>
<clipPath id="clip0_4055_1061">
<rect width="119" height="31" fill="white" transform="translate(161 11)"/>
</clipPath>
<clipPath id="clip1_4055_1061">
<rect width="302" height="278" fill="white" transform="translate(51.1211 26.5) rotate(15)"/>
</clipPath>
<clipPath id="clip2_4055_1061">
<rect width="268" height="38" fill="white"/>
</clipPath>
</defs>
</svg>
